<svg width="56" height="56" fill="none" xmlns="http://www.w3.org/2000/svg"><g clip-path="url(#a)" fill="#fff"><path d="M55.774 28.861C49.478 40.01 39.095 46.667 28 46.667 16.905 46.667 6.522 40.01.226 28.86a1.75 1.75 0 0 1 0-1.72C6.522 15.991 16.905 9.333 28 9.333c11.095 0 21.478 6.657 27.774 17.806a1.755 1.755 0 0 1 0 1.722ZM28 18.667c-5.147 0-9.333 4.186-9.333 9.333s4.186 9.333 9.333 9.333 9.333-4.186 9.333-9.333-4.186-9.333-9.333-9.333Zm25.667 18.666a2.334 2.334 0 0 0-2.334 2.334V49A2.337 2.337 0 0 1 49 51.333h-9.333a2.334 2.334 0 0 0 0 4.667H49c3.86 0 7-3.14 7-7v-9.333a2.334 2.334 0 0 0-2.333-2.334Zm-51.334 0A2.334 2.334 0 0 0 0 39.667V49c0 3.86 3.14 7 7 7h9.333a2.334 2.334 0 0 0 0-4.667H7A2.337 2.337 0 0 1 4.667 49v-9.333a2.334 2.334 0 0 0-2.334-2.334ZM49 0h-9.333a2.334 2.334 0 0 0 0 4.667H49A2.337 2.337 0 0 1 51.333 7v9.333a2.334 2.334 0 0 0 4.667 0V7c0-3.86-3.14-7-7-7ZM16.333 0H7C3.14 0 0 3.14 0 7v9.333a2.334 2.334 0 0 0 4.667 0V7A2.337 2.337 0 0 1 7 4.667h9.333a2.334 2.334 0 0 0 0-4.667Z"/></g><defs><clipPath id="a"><path fill="#fff" transform="matrix(1 0 0 -1 0 56)" d="M0 0h56v56H0z"/></clipPath></defs></svg>