<svg width="35" height="35" fill="none" xmlns="http://www.w3.org/2000/svg"><g clip-path="url(#a)"><path d="M2.917 13.125h4.375v17.5H2.917a1.458 1.458 0 0 1-1.459-1.458V14.583a1.458 1.458 0 0 1 1.459-1.458Zm7.719-1.886 9.333-9.333a.729.729 0 0 1 .954-.068l1.244.933a2.187 2.187 0 0 1 .806 2.29l-1.681 6.606h9.333a2.917 2.917 0 0 1 2.917 2.917v3.068c0 .381-.074.758-.22 1.111l-4.513 10.96a1.458 1.458 0 0 1-1.349.902H11.667a1.458 1.458 0 0 1-1.459-1.458V12.27c0-.387.154-.758.428-1.032Z" fill="#fff"/></g><defs><clipPath id="a"><path fill="#fff" d="M0 0h35v35H0z"/></clipPath></defs></svg>